replay
version=1
nRows=22
nColumns=40
inDegrees=no
endheader
time	/jointset/ground_pelvis/pelvis_tilt/value	/jointset/ground_pelvis/pelvis_list/value	/jointset/ground_pelvis/pelvis_rotation/value	/jointset/ground_pelvis/pelvis_tx/value	/jointset/ground_pelvis/pelvis_ty/value	/jointset/ground_pelvis/pelvis_tz/value	/jointset/hip_r/hip_flexion_r/value	/jointset/hip_r/hip_adduction_r/value	/jointset/hip_r/hip_rotation_r/value	/jointset/walker_knee_r/knee_angle_r/value	/jointset/patellofemoral_r/knee_angle_r_beta/value	/jointset/ankle_r/ankle_angle_r/value	/jointset/subtalar_r/subtalar_angle_r/value	/jointset/mtp_r/mtp_angle_r/value	/jointset/hip_l/hip_flexion_l/value	/jointset/hip_l/hip_adduction_l/value	/jointset/hip_l/hip_rotation_l/value	/jointset/walker_knee_l/knee_angle_l/value	/jointset/patellofemoral_l/knee_angle_l_beta/value	/jointset/ankle_l/ankle_angle_l/value	/jointset/subtalar_l/subtalar_angle_l/value	/jointset/mtp_l/mtp_angle_l/value	/jointset/back/lumbar_extension/value	/jointset/back/lumbar_bending/value	/jointset/back/lumbar_rotation/value	/jointset/acromial_r/arm_flex_r/value	/jointset/acromial_r/arm_add_r/value	/jointset/acromial_r/arm_rot_r/value	/jointset/elbow_r/elbow_flex_r/value	/jointset/radioulnar_r/pro_sup_r/value	/jointset/radius_hand_r/wrist_flex_r/value	/jointset/radius_hand_r/wrist_dev_r/value	/jointset/acromial_l/arm_flex_l/value	/jointset/acromial_l/arm_add_l/value	/jointset/acromial_l/arm_rot_l/value	/jointset/elbow_l/elbow_flex_l/value	/jointset/radioulnar_l/pro_sup_l/value	/jointset/radius_hand_l/wrist_flex_l/value	/jointset/radius_hand_l/wrist_dev_l/value
0	-0.1447829783	-0.1540222821	-0.3302292182	1.171958032	1.05258637	-0.09643914845	0.2150611217	0.15618574	0.2041070731	0.147493456	0.147493456	-0.1859323571	-0.1893397227	6.857213317e-07	0.1823132543	-0.1571402206	-0.2067419991	0.1429651917	0.1429651917	-0.05280447175	-0.1463079449	6.739386002e-07	0.2510091901	0.9410543571	-0.7953314723	-0.8095493174	-1.299404343	-1.083478787	0.629530099	0.2010707481	0.4740271827	-0.7786500158	-0.003008472706	0.7103264844	-1.042483728	1.710799808	0.1964445088	1.438872391e-05	-5.212770599e-06
0.002777778	-0.1448399056	-0.1540951595	-0.3302145211	1.172007869	1.053583776	-0.0964828665	0.2150673838	0.1561478129	0.2041257421	0.1475036352	0.1475036352	-0.1859172337	-0.1893459293	6.193637094e-07	0.1823158308	-0.1571372336	-0.2067507199	0.1429480912	0.1429480912	-0.05277074035	-0.1463765624	6.238461322e-07	0.2510507929	0.9410483626	-0.7953253331	-0.8096774315	-1.299575199	-1.08353821	0.6294136998	0.2010537493	0.473831483	-0.779226969	-0.003017139301	0.7103412726	-1.042475411	1.710800649	0.1964403369	1.416877857e-05	-8.793225998e-06
0.005555556	-0.1449015745	-0.154178121	-0.3302080824	1.172062921	1.054510199	-0.0965339675	0.2150667899	0.1561013546	0.2041349501	0.1475138998	0.1475138998	-0.1859151781	-0.1893353806	5.097647041e-07	0.1823126068	-0.1571279898	-0.2067324232	0.1429391853	0.1429391853	-0.05275484017	-0.1463992816	5.502234428e-07	0.2510953048	0.9410751924	-0.7953332078	-0.8098250335	-1.299717722	-1.083473711	0.6293467101	0.2012255056	0.4737304488	-0.7799972688	-0.003019176985	0.7103772895	-1.042455645	1.71079664	0.1964369746	1.297199821e-05	-1.001708811e-05
0.008333333	-0.1449674845	-0.1542681935	-0.3302056711	1.172123376	1.055366495	-0.09659104813	0.2150586093	0.1560456208	0.2041421368	0.147524188	0.147524188	-0.1859177498	-0.1893205081	3.933680248e-07	0.1823025934	-0.1571112834	-0.2067041042	0.1429365312	0.1429365312	-0.05274789255	-0.1464015082	4.734770807e-07	0.2511462592	0.9411260826	-0.7953401416	-0.8099718068	-1.299827589	-1.083355686	0.6293065744	0.2014305884	0.4737087147	-0.7808104237	-0.003017581325	0.7104173628	-1.042433406	1.710792502	0.1964329391	1.140891214e-05	-9.986091153e-06
0.011111111	-0.1450371796	-0.154362431	-0.3302031277	1.172189402	1.05615353	-0.09665270309	0.2150421899	0.1559799309	0.2041546322	0.1475344441	0.1475344441	-0.1859166412	-0.1893135556	3.029571034e-07	0.1822848836	-0.1570859791	-0.2066825242	0.1429382195	0.1429382195	-0.05274112548	-0.1464083042	4.156013729e-07	0.2512071931	0.9411923702	-0.7953314267	-0.810098298	-1.299900805	-1.083254319	0.6292690771	0.2015643057	0.4737112097	-0.7815422381	-0.003015322454	0.7104445719	-1.042417529	1.710792886	0.1964267689	1.008072537e-05	-9.781073944e-06
0.013888889	-0.1451097428	-0.1544589088	-0.3301986925	1.172260398	1.056872766	-0.09671744011	0.2150176719	0.1559053632	0.2041754291	0.1475444787	0.1475444787	-0.1859083953	-0.1893190783	2.454283472e-07	0.1822594207	-0.1570529198	-0.2066750361	0.142943198	0.142943198	-0.05273059854	-0.1464306641	3.76740604e-07	0.2512787184	0.9412684377	-0.7953023967	-0.8101982739	-1.299937334	-1.083201221	0.6292197674	0.2016069896	0.4736913586	-0.7821484535	-0.003014043422	0.7104516248	-1.042411603	1.710799766	0.1964176242	9.240406989e-06	-9.947209035e-06
0.016666667	-0.1451836268	-0.1545570294	-0.3301937364	1.172334758	1.057526443	-0.09678365261	0.2149861997	0.1558252773	0.2042018859	0.1475539317	0.1475539317	-0.1858958541	-0.1893316205	2.018455219e-07	0.1822272217	-0.1570155149	-0.2066767561	0.1429515232	0.1429515232	-0.05271866486	-0.146461259	3.372976464e-07	0.2513575809	0.9413526225	-0.7952614414	-0.8102826023	-1.299942114	-1.083176988	0.6291589856	0.2015987147	0.4736553633	-0.782663823	-0.003013655752	0.7104437565	-1.042412398	1.71081163	0.1964054677	8.689487406e-06	-1.033965385e-05
0.019444444	-0.1452572716	-0.1546562797	-0.3301898469	1.172410811	1.058116852	-0.09684972522	0.2149490223	0.1557431947	0.2042310033	0.1475624494	0.1475624494	-0.1858822582	-0.1893450869	1.597765852e-07	0.182189408	-0.1569773538	-0.2066820149	0.1429633373	0.1429633373	-0.05270806748	-0.1464915592	2.908758737e-07	0.2514402995	0.9414435327	-0.7952177911	-0.8103634214	-1.299920366	-1.083158769	0.629088566	0.2015716269	0.4736223758	-0.7831225222	-0.003013962369	0.7104270181	-1.042416236	1.710826728	0.1963903127	8.213766296e-06	-1.077180124e-05
0.022222222	-0.1453291264	-0.1547560397	-0.3301884557	1.172486942	1.058646278	-0.09691409757	0.2149073274	0.1556624221	0.2042601507	0.1475697451	0.1475697451	-0.1858704634	-0.1893540878	1.157035582e-07	0.1821470832	-0.156941729	-0.206685836	0.142978731	0.142978731	-0.05270119025	-0.146514158	2.445180099e-07	0.2515235041	0.9415396873	-0.795179808	-0.8104514456	-1.299877326	-1.08312678	0.6290102456	0.2015456993	0.4736160026	-0.7835500201	-0.003014893178	0.7104069122	-1.04241979	1.710843462	0.1963722125	7.639489729e-06	-1.108342186e-05
0.025	-0.1453975225	-0.154854913	-0.3301897693	1.172561974	1.059117008	-0.09697562215	0.2148615892	0.1555845984	0.204289369	0.1475759024	0.1475759024	-0.1858605746	-0.1893583524	6.769928496e-08	0.1821009814	-0.1569096575	-0.2066882905	0.1429973137	0.1429973137	-0.05269790818	-0.1465299703	2.007583272e-07	0.2516044751	0.9416388565	-0.7951494972	-0.8105462978	-1.299818576	-1.083084648	0.6289220053	0.2015174044	0.4736390667	-0.7839398391	-0.003017277413	0.7103848826	-1.042422313	1.710861406	0.1963515118	6.985357735e-06	-1.130475017e-05
0.027777778	-0.1454607414	-0.1549511535	-0.3301934498	1.172634919	1.059531325	-0.09703333613	0.2148119686	0.1555106166	0.2043199036	0.1475811787	0.1475811787	-0.185851459	-0.1893599146	1.83486637e-08	0.1820516748	-0.1568811376	-0.2066917208	0.1430184817	0.1430184817	-0.05269696433	-0.1465436403	1.596285913e-07	0.2516807791	0.9417384749	-0.7951260048	-0.8106424781	-1.299749875	-1.083046557	0.6288199321	0.2014764868	0.4736820302	-0.7842729352	-0.003022346996	0.7103605508	-1.042424226	1.71088066	0.1963286844	6.35829742e-06	-1.155559534e-05
0.030555556	-0.1455170763	-0.1550430136	-0.3301991693	1.172704795	1.05989151	-0.09708627748	0.2147586443	0.1554413734	0.2043530112	0.1475858451	0.1475858451	-0.1858419741	-0.1893608259	-2.272687985e-08	0.1819997482	-0.1568561691	-0.2066984839	0.1430416368	0.1430416368	-0.05269708636	-0.1465598111	1.236670227e-07	0.2517499829	0.9418359834	-0.7951084592	-0.810734263	-1.299676997	-1.083026731	0.628699962	0.2014150042	0.4737335518	-0.7845312314	-0.003031333221	0.7103335349	-1.042425953	1.710901325	0.1963042024	5.871982847e-06	-1.196112989e-05
0.033333333	-0.1455655639	-0.1551290627	-0.3302072124	1.172770753	1.060199663	-0.0971337164	0.2147022648	0.1553777326	0.2043892515	0.1475901217	0.1475901217	-0.1858317393	-0.1893619752	-4.809651796e-08	0.1819461368	-0.1568347875	-0.2067094493	0.1430661778	0.1430661778	-0.05269742224	-0.1465809512	9.563335165e-08	0.251810121	0.9419299662	-0.7950969082	-0.8108172087	-1.299605084	-1.083031962	0.6285615359	0.2013346932	0.4737849269	-0.7847073166	-0.003044965115	0.7103046452	-1.042427238	1.710922879	0.1962784914	5.585683218e-06	-1.25714373e-05
0.036111111	-0.1456068847	-0.1552085784	-0.3302192225	1.172832259	1.060457471	-0.09717544296	0.2146445026	0.1553204754	0.2044276242	0.1475940973	0.1475940973	-0.1858220855	-0.1893616391	-6.465548674e-08	0.1818925367	-0.1568170977	-0.2067221584	0.1430914852	0.1430914852	-0.05269807654	-0.1466046875	7.508965815e-08	0.2518602676	0.9420215581	-0.7950934484	-0.8108901041	-1.299537849	-1.083052415	0.6284122196	0.2012547582	0.4738364846	-0.7848158342	-0.003062851427	0.7102773535	-1.042426289	1.710943418	0.1962518779	5.427390015e-06	-1.325906766e-05
0.038888889	-0.1456419318	-0.1552809322	-0.3302370418	1.172888817	1.060666566	-0.09721131613	0.2145871614	0.1552703707	0.2044669344	0.1475978474	0.1475978474	-0.1858145739	-0.1893577416	-7.998163576e-08	0.1818407299	-0.156803211	-0.206733722	0.1431169282	0.1431169282	-0.05269928666	-0.1466279865	5.836256792e-08	0.2518996019	0.942112238	-0.7951004204	-0.8109522091	-1.29947879	-1.083076012	0.628260797	0.2011949341	0.4738912477	-0.7848735203	-0.003084447735	0.7102554916	-1.042421106	1.710960847	0.1962246769	5.307272761e-06	-1.386900404e-05
0.041666667	-0.1456715522	-0.1553454604	-0.3302624662	1.172939931	1.060828542	-0.09724118576	0.2145320168	0.1552281575	0.2045060469	0.1476014339	0.1476014339	-0.1858106532	-0.1893483838	-1.002196486e-07	0.1817924545	-0.1567932053	-0.2067414452	0.1431418701	0.1431418701	-0.05270124778	-0.1466479959	3.892947022e-08	0.2519272795	0.9422034092	-0.795120065	-0.8110029832	-1.299431199	-1.083091126	0.6281160802	0.2011728986	0.4739528658	-0.7848965826	-0.003109238784	0.7102426445	-1.042409806	1.710973204	0.196197246	5.139099769e-06	-1.424980438e-05
0.044444444	-0.1456960483	-0.1554009815	-0.3302963441	1.172985098	1.060944394	-0.09726478213	0.2144805732	0.155194129	0.2045444634	0.1476046691	0.1476046691	-0.1858100592	-0.1893343367	-1.221224339e-07	0.1817490869	-0.1567866788	-0.2067452975	0.1431657371	0.1431657371	-0.05270345532	-0.1466647328	1.757538654e-08	0.2519426906	0.9422953117	-0.7951536422	-0.8110446403	-1.29939558	-1.083092636	0.627985969	0.2011896327	0.4740227269	-0.7849005391	-0.00313720496	0.7102386446	-1.042392274	1.710980476	0.1961705625	4.914992671e-06	-1.436348744e-05
0.047222222	-0.1457153059	-0.1554459193	-0.3303387834	1.173023804	1.061014651	-0.09728174453	0.2144341239	0.1551682362	0.2045821639	0.1476071668	0.1476071668	-0.1858112128	-0.1893184255	-1.377355037e-07	0.1817117288	-0.1567828631	-0.2067472849	0.1431880072	0.1431880072	-0.05270486582	-0.1466804248	3.345119388e-10	0.2519454244	0.9423872913	-0.7952016807	-0.8110814524	-1.299370294	-1.08308043	0.6278776143	0.2012338167	0.4741000784	-0.7849005936	-0.003168706763	0.7102404369	-1.04236975	1.710984147	0.1961460788	4.68574435e-06	-1.426291332e-05
0.05	-0.1457291935	-0.1554786939	-0.3303898669	1.17305554	1.061039833	-0.09729171062	0.2143939433	0.1551504226	0.2046191346	0.147608528	0.147608528	-0.1858125094	-0.1893035242	-1.437354822e-07	0.1816814655	-0.1567809829	-0.2067494578	0.1432081556	0.1432081556	-0.05270442543	-0.1466973541	-1.027443145e-08	0.2519350753	0.9424786741	-0.7952647015	-0.8111176802	-1.299353643	-1.083054545	0.6277981136	0.2012943242	0.4741837594	-0.7849121198	-0.003204109212	0.7102448937	-1.042343511	1.710985738	0.1961252583	4.498766284e-06	-1.400471267e-05
0.052777778	-0.1457371286	-0.1554984851	-0.3304483199	1.173079902	1.061020315	-0.09729457702	0.214360481	0.1551405388	0.2046558409	0.1476083521	0.1476083521	-0.1858127965	-0.1892913112	-1.405674576e-07	0.1816589767	-0.1567803659	-0.2067536611	0.1432259044	0.1432259044	-0.05270159206	-0.1467170268	-1.402739266e-08	0.2519114076	0.9425689404	-0.7953421254	-0.8111569192	-1.299342523	-1.083017452	0.6277470465	0.2013578558	0.4742722757	-0.7849471717	-0.0032438597	0.710249008	-1.042314939	1.710986713	0.196108655	4.405580483e-06	-1.365215358e-05
0.055555556	-0.145736752	-0.1555074933	-0.3305074566	1.173096929	1.060955889	-0.09729127403	0.2143309379	0.15513806	0.2046946832	0.1476062594	0.1476062594	-0.1858127058	-0.1892786936	-1.262507505e-07	0.1816433597	-0.1567807464	-0.2067609343	0.1432419788	0.1432419788	-0.05269785932	-0.1467378469	-6.485856735e-09	0.2518748713	0.9426581814	-0.79542894	-0.8112002116	-1.299328186	-1.082981319	0.6276940412	0.20140116	0.4743637141	-0.7850040177	-0.003288751234	0.7102502564	-1.042285831	1.710988289	0.1960931828	4.489063011e-06	-1.329396221e-05
0.058333333	-0.1457252536	-0.1555086733	-0.3305592261	1.173106766	1.060846204	-0.09728299161	0.2143016906	0.1551423601	0.2047385347	0.1476018669	0.1476018669	-0.1858133187	-0.1892613778	-1.031913341e-07	0.1816333101	-0.1567819535	-0.206772103	0.1432573526	0.1432573526	-0.05269523935	-0.1467574529	1.418848029e-08	0.2518260985	0.942746635	-0.7955190462	-0.8112478619	-1.299300482	-1.082960721	0.6276011691	0.2013995574	0.4744552185	-0.785077935	-0.003339663818	0.7102462358	-1.04225809	1.710991623	0.1960748453	4.835689219e-06	-1.302472282e-05
